<svg xmlns="http://www.w3.org/2000/svg" xmlns:xlink="http://www.w3.org/1999/xlink" width="1850" height="919" version="1.1">
<style type="text/css">
.l0{
 fill: #000000;
  stroke: #000000;
  stroke-linecap:round;
  stroke-linejoin:round;
  stroke-width: 2.70113;
}
.l1{
 fill: #00ccee;
  stroke: #00ccee;
  stroke-linecap:round;
  stroke-linejoin:round;
  stroke-width: 2.70113;
}
.l2{
  fill: none;
  stroke: #3f3f3f;
  stroke-linecap:round;
  stroke-linejoin:round;
  stroke-width: 2.70113;
}
.l3{
 fill: #cccccc; fill-opacity: 0.5;
  stroke: #cccccc;
  stroke-linecap:round;
  stroke-linejoin:round;
  stroke-width: 2.70113;
}
.l4{
 fill: #88dd00;
  stroke: #88dd00;
  stroke-linecap:round;
  stroke-linejoin:round;
  stroke-width: 2.70113;
}
.l5{
 fill: #bb2200;
  stroke: #bb2200;
  stroke-linecap:round;
  stroke-linejoin:round;
  stroke-width: 2.70113;
}
.l6{
 fill: #00ccee; fill-opacity: 0.5;
  stroke: #00ccee;
  stroke-linecap:round;
  stroke-linejoin:round;
  stroke-width: 2.70113;
}
.l7{
 fill: #ff0000; fill-opacity: 0.5;
  stroke: #ff0000;
  stroke-linecap:round;
  stroke-linejoin:round;
  stroke-width: 2.70113;
}
.l8{
 fill: #ffff00; fill-opacity: 0.5;
  stroke: #ffff00;
  stroke-linecap:round;
  stroke-linejoin:round;
  stroke-width: 2.70113;
}
.l9{
 fill: #ffffff; fill-opacity: 0.5;
  stroke: #ffffff;
  stroke-linecap:round;
  stroke-linejoin:round;
  stroke-width: 2.70113;
}
.l10{
 fill: #ff00ff;
  stroke: #ff00ff;
  stroke-linecap:round;
  stroke-linejoin:round;
  stroke-width: 2.70113;
}
.l11{
 fill: #00ff00; fill-opacity: 0.5;
  stroke: #00ff00;
  stroke-linecap:round;
  stroke-linejoin:round;
  stroke-width: 2.70113;
}
.l12{
 fill: #0044dd; fill-opacity: 0.5;
  stroke: #0044dd;
  stroke-linecap:round;
  stroke-linejoin:round;
  stroke-width: 2.70113;
}
.l13{
 fill: #aaaa00; fill-opacity: 0.5;
  stroke: #aaaa00;
  stroke-linecap:round;
  stroke-linejoin:round;
  stroke-width: 2.70113;
}
.l14{
  fill: none;
  stroke: #aaccaa;
  stroke-linecap:round;
  stroke-linejoin:round;
  stroke-width: 2.70113;
}
.l15{
 fill: #ff7777; fill-opacity: 0.5;
  stroke: #ff7777;
  stroke-linecap:round;
  stroke-linejoin:round;
  stroke-width: 2.70113;
}
.l16{
 fill: #bfff81; fill-opacity: 0.5;
  stroke: #bfff81;
  stroke-linecap:round;
  stroke-linejoin:round;
  stroke-width: 2.70113;
}
.l17{
  fill: none;
  stroke: #00ffcc;
  stroke-linecap:round;
  stroke-linejoin:round;
  stroke-width: 2.70113;
}
.l18{
 fill: #ce0097; fill-opacity: 0.5;
  stroke: #ce0097;
  stroke-linecap:round;
  stroke-linejoin:round;
  stroke-width: 2.70113;
}
.l19{
  fill: none;
  stroke: #d2d46b;
  stroke-linecap:round;
  stroke-linejoin:round;
  stroke-width: 2.70113;
}
.l20{
  fill: none;
  stroke: #ef6158;
  stroke-linecap:round;
  stroke-linejoin:round;
  stroke-width: 2.70113;
}
.l21{
  fill: none;
  stroke: #fdb200;
  stroke-linecap:round;
  stroke-linejoin:round;
  stroke-width: 2.70113;
}
text {font-family: Sans-Serif;}
</style>
<rect class="l0" x="0" y="0" width="1850" height="919"/>
<text fill="#00ccee"  xml:space="preserve" font-size="42.918" transform="translate(27.9717, 485.914)" >A</text>
<text fill="#00ccee"  xml:space="preserve" font-size="42.918" transform="translate(27.9717, 711.008)" >B</text>
<text fill="#00ccee"  xml:space="preserve" font-size="42.918" transform="translate(569.577, 69.0522) rotate(270)" >VP</text>
<text fill="#00ccee"  xml:space="preserve" font-size="42.918" transform="translate(567.245, 904.595) rotate(270)" >VN</text>
<text fill="#00ccee"  xml:space="preserve" font-size="42.918" transform="translate(929.212, 435.893)" >Y</text>
<text fill="#00ccee"  xml:space="preserve" font-size="42.918" transform="translate(172.645, 478.893)" >A</text>
<text fill="#00ccee"  xml:space="preserve" font-size="42.918" transform="translate(172.645, 703.987)" >B</text>
<text fill="#00ccee"  xml:space="preserve" font-size="42.918" transform="translate(181.161, 262.383)" >A</text>
<text fill="#00ccee"  xml:space="preserve" font-size="42.918" transform="translate(381.245, 487.477)" >A</text>
<text fill="#00ccee"  xml:space="preserve" font-size="42.918" transform="translate(381.245, 712.572)" >B</text>
<text fill="#00ccee"  xml:space="preserve" font-size="42.918" transform="translate(897.949, 253.798)" >B</text>
<text fill="#cccccc"  xml:space="preserve" font-size="26.0109" transform="translate(566.56, 683.783)" >M1</text>
<text fill="#cccccc"  xml:space="preserve" font-size="26.0109" transform="translate(566.56, 721.299)" >nfet_01v8</text>
<text fill="#aaaa00"  xml:space="preserve" font-size="26.0109" transform="translate(566.56, 758.815)" >1 x 2 / 0.15</text>
<text fill="#cccccc"  xml:space="preserve" font-size="26.0109" transform="translate(566.56, 458.689)" >M2</text>
<text fill="#cccccc"  xml:space="preserve" font-size="26.0109" transform="translate(566.56, 496.205)" >nfet_01v8</text>
<text fill="#aaaa00"  xml:space="preserve" font-size="26.0109" transform="translate(566.56, 533.72)" >1 x 2 / 0.15</text>
<text fill="#cccccc"  xml:space="preserve" font-size="26.0109" transform="translate(366.476, 196.079)" >M3</text>
<text fill="#cccccc"  xml:space="preserve" font-size="26.0109" transform="translate(366.476, 233.595)" >pfet_01v8</text>
<text fill="#aaaa00"  xml:space="preserve" font-size="26.0109" transform="translate(366.476, 271.111)" >1 x 2 / 0.15</text>
<text fill="#cccccc"  xml:space="preserve" font-size="26.0109" transform="translate(702.633, 196.079)" >M4</text>
<text fill="#cccccc"  xml:space="preserve" font-size="26.0109" transform="translate(610.633, 233.595)" >pfet_01v8</text>
<text fill="#aaaa00"  xml:space="preserve" font-size="26.0109" transform="translate(592.633, 271.111)" >1 x 2 / 0.15</text>
<path class="l4" d="M554.055 618.892L554.055 656.407"/>
<path class="l4" d="M516.539 656.407L554.055 656.407"/>
<path class="l4" d="M516.539 642.339L516.539 745.507"/>
<path class="l4" d="M516.539 731.439L554.055 731.439"/>
<path class="l4" d="M554.055 731.439L554.055 768.955"/>
<path class="l4" d="M516.539 693.923L554.055 693.923"/>
<path class="l4" d="M507.16 656.407L507.16 731.439"/>
<path class="l4" d="M479.023 693.923L507.16 693.923"/>
<path class="l4" d="M554.055 393.798L554.055 431.313"/>
<path class="l4" d="M516.539 431.313L554.055 431.313"/>
<path class="l4" d="M516.539 417.245L516.539 520.413"/>
<path class="l4" d="M516.539 506.345L554.055 506.345"/>
<path class="l4" d="M554.055 506.345L554.055 543.86"/>
<path class="l4" d="M516.539 468.829L554.055 468.829"/>
<path class="l4" d="M507.16 431.313L507.16 506.345"/>
<path class="l4" d="M479.023 468.829L507.16 468.829"/>
<path class="l4" d="M353.971 168.703L353.971 206.219"/>
<path class="l4" d="M316.455 206.219L353.971 206.219"/>
<path class="l4" d="M316.455 192.151L316.455 295.319"/>
<path class="l4" d="M316.455 281.25L353.971 281.25"/>
<path class="l4" d="M353.971 281.25L353.971 318.766"/>
<path class="l4" d="M316.455 243.735L353.971 243.735"/>
<path class="l4" d="M307.076 206.219L307.076 281.25"/>
<path class="l4" d="M278.94 243.735L293.008 243.735"/>
<circle class="l4" cx="300.042" cy="243.735" r="7.03419" style="fill:none;"/>
<path class="l4" d="M754.138 168.703L754.138 206.219"/>
<path class="l4" d="M754.138 206.219L791.654 206.219"/>
<path class="l4" d="M791.654 192.151L791.654 295.319"/>
<path class="l4" d="M754.138 281.25L791.654 281.25"/>
<path class="l4" d="M754.138 281.25L754.138 318.766"/>
<path class="l4" d="M754.138 243.735L791.654 243.735"/>
<path class="l4" d="M801.033 206.219L801.033 281.25"/>
<path class="l4" d="M815.101 243.735L829.17 243.735"/>
<circle class="l4" cx="808.067" cy="243.735" r="7.03419" style="fill:none;"/>
<path class="l5" d="M552.804 617.641L555.305 617.641L555.305 620.142L552.804 620.142L552.804 617.641z"/>
<path class="l5" d="M477.773 692.673L480.274 692.673L480.274 695.174L477.773 695.174L477.773 692.673z"/>
<path class="l5" d="M552.804 767.704L555.305 767.704L555.305 770.205L552.804 770.205L552.804 767.704z"/>
<path class="l5" d="M552.804 692.673L555.305 692.673L555.305 695.174L552.804 695.174L552.804 692.673z"/>
<path class="l5" d="M552.804 392.547L555.305 392.547L555.305 395.048L552.804 395.048L552.804 392.547z"/>
<path class="l5" d="M477.773 467.578L480.274 467.578L480.274 470.079L477.773 470.079L477.773 467.578z"/>
<path class="l5" d="M552.804 542.61L555.305 542.61L555.305 545.111L552.804 545.111L552.804 542.61z"/>
<path class="l5" d="M552.804 467.578L555.305 467.578L555.305 470.079L552.804 470.079L552.804 467.578z"/>
<path class="l5" d="M352.72 317.516L355.222 317.516L355.222 320.017L352.72 320.017L352.72 317.516z"/>
<path class="l5" d="M277.689 242.484L280.19 242.484L280.19 244.985L277.689 244.985L277.689 242.484z"/>
<path class="l5" d="M352.72 167.453L355.222 167.453L355.222 169.954L352.72 169.954L352.72 167.453z"/>
<path class="l5" d="M352.72 242.484L355.222 242.484L355.222 244.985L352.72 244.985L352.72 242.484z"/>
<path class="l5" d="M752.888 317.516L755.389 317.516L755.389 320.017L752.888 320.017L752.888 317.516z"/>
<path class="l5" d="M827.919 242.484L830.42 242.484L830.42 244.985L827.919 244.985L827.919 242.484z"/>
<path class="l5" d="M752.888 167.453L755.389 167.453L755.389 169.954L752.888 169.954L752.888 167.453z"/>
<path class="l5" d="M752.888 242.484L755.389 242.484L755.389 244.985L752.888 244.985L752.888 242.484z"/>
<path class="l5" d="M91.3611 468.829L103.866 468.829"/>
<path class="l5" d="M91.3611 468.829L81.9822 456.324L60.098 456.324L69.477 468.829L60.098 481.334L81.9822 481.334L91.3611 468.829"/>
<path class="l5" d="M100.74 465.703L106.993 465.703L106.993 471.955L100.74 471.955L100.74 465.703z"/>
<path class="l5" d="M91.3611 693.923L103.866 693.923"/>
<path class="l5" d="M91.3611 693.923L81.9822 681.418L60.098 681.418L69.477 693.923L60.098 706.428L81.9822 706.428L91.3611 693.923"/>
<path class="l5" d="M100.74 690.797L106.993 690.797L106.993 697.049L100.74 697.049L100.74 690.797z"/>
<path class="l5" d="M554.055 110.867L554.055 118.682"/>
<path class="l5" d="M566.56 84.2931L554.055 74.9142L541.549 84.2931L541.549 101.488L554.055 110.867L566.56 101.488L566.56 84.2931"/>
<path class="l5" d="M550.928 115.556L557.181 115.556L557.181 121.809L550.928 121.809L550.928 115.556z"/>
<path class="l5" d="M554.055 793.965L554.055 801.781"/>
<path class="l5" d="M541.549 828.354L554.055 837.733L566.56 828.354L566.56 811.16L554.055 801.781L541.549 811.16L541.549 828.354"/>
<path class="l5" d="M550.928 790.839L557.181 790.839L557.181 797.091L550.928 797.091L550.928 790.839z"/>
<path class="l5" d="M879.191 418.808L901.075 418.808"/>
<path class="l5" d="M922.959 418.808L913.58 406.303L891.696 406.303L901.075 418.808L891.696 431.313L913.58 431.313L922.959 418.808"/>
<path class="l5" d="M876.064 415.682L882.317 415.682L882.317 421.934L876.064 421.934L876.064 415.682z"/>
<path class="l5" d="M150.761 465.703L157.014 465.703L157.014 471.955L150.761 471.955L150.761 465.703z"/>
<path class="l5" d="M150.761 690.797L157.014 690.797L157.014 697.049L150.761 697.049L150.761 690.797z"/>
<path class="l5" d="M225.792 240.608L232.045 240.608L232.045 246.861L225.792 246.861L225.792 240.608z"/>
<path class="l5" d="M425.876 465.703L432.129 465.703L432.129 471.955L425.876 471.955L425.876 465.703z"/>
<path class="l5" d="M425.876 690.797L432.129 690.797L432.129 697.049L425.876 697.049L425.876 690.797z"/>
<path class="l5" d="M876.064 240.608L882.317 240.608L882.317 246.861L876.064 246.861L876.064 240.608z"/>
<path class="l1" d="M353.971 318.766L353.971 343.777"/>
<path class="l1" d="M353.971 343.777L554.055 343.777"/>
<path class="l1" d="M554.055 343.777L554.055 393.798"/>
<path class="l1" d="M754.138 318.766L754.138 343.777"/>
<path class="l1" d="M554.055 343.777L754.138 343.777"/>
<path class="l1" d="M554.055 543.86L554.055 618.892"/>
<path class="l1" d="M429.002 468.829L479.023 468.829"/>
<path class="l1" d="M429.002 693.923L479.023 693.923"/>
<path class="l1" d="M228.919 243.735L278.94 243.735"/>
<path class="l1" d="M829.17 243.735L879.191 243.735"/>
<path class="l1" d="M353.971 143.693L353.971 168.703"/>
<path class="l1" d="M353.971 143.693L754.138 143.693"/>
<path class="l1" d="M754.138 143.693L754.138 168.703"/>
<path class="l1" d="M554.055 118.682L554.055 143.693"/>
<path class="l1" d="M353.971 168.703L353.971 243.735"/>
<path class="l1" d="M754.138 168.703L754.138 243.735"/>
<path class="l1" d="M554.055 693.923L554.055 768.955"/>
<path class="l1" d="M554.055 768.955L554.055 793.965"/>
<path class="l1" d="M103.866 468.829L153.887 468.829"/>
<path class="l1" d="M103.866 693.923L153.887 693.923"/>
<path class="l1" d="M654.097 343.777L654.097 418.808"/>
<path class="l1" d="M654.097 418.808L879.191 418.808"/>
<path class="l1" d="M554.055 468.829L629.086 468.829"/>
<path class="l1" d="M629.086 468.829L629.086 768.955"/>
<path class="l1" d="M554.055 768.955L629.086 768.955"/>
<circle class="l1" cx="554.055" cy="768.955" r="10.0042"/>
<circle class="l1" cx="654.097" cy="343.777" r="10.0042"/>
<circle class="l1" cx="554.055" cy="768.955" r="10.0042"/>
<circle class="l1" cx="554.055" cy="768.955" r="10.0042"/>
<circle class="l1" cx="554.055" cy="143.693" r="10.0042"/>
<circle class="l1" cx="554.055" cy="343.777" r="10.0042"/>
<circle class="l1" cx="554.055" cy="343.777" r="10.0042"/>
<circle class="l1" cx="554.055" cy="343.777" r="10.0042"/>
</svg>
